<?xml version="1.0" encoding="utf-8"?>
<svg viewBox="162.96 91.642 172.927 222.881" xmlns="http://www.w3.org/2000/svg">
  <path d="M 289.009 292.726 L 209.592 292.726 C 208.101 292.726 206.737 293.568 206.072 294.904 L 199.11 308.825 C 197.801 311.443 199.703 314.523 202.632 314.523 L 218.057 314.523 L 280.544 314.523 L 295.968 314.523 C 298.898 314.523 300.8 311.443 299.491 308.825 L 292.532 294.904 C 291.864 293.568 290.5 292.726 289.009 292.726 Z" style="fill: #3f3d56;"/>
  <path d="M 246.486 145.121 C 253.35 141.519 260.065 137.683 266.766 133.83 C 273.45 129.946 280.113 126.033 286.709 122.012 C 293.305 117.994 299.881 113.944 306.405 109.814 L 316.182 103.599 C 319.484 101.6 322.643 99.375 324.412 94.988 C 325.515 92.252 328.629 90.929 331.362 92.03 C 334.1 93.133 335.423 96.244 334.32 98.982 C 333.451 101.136 331.326 102.414 329.129 102.321 C 324.405 102.112 321.071 104.065 317.881 106.243 L 308.174 112.561 C 301.71 116.785 295.301 121.093 288.908 125.432 C 282.516 129.766 276.191 134.208 269.887 138.678 C 263.602 143.183 257.33 147.703 251.203 152.454 C 249.293 153.935 246.546 153.588 245.064 151.678 C 243.583 149.769 243.928 147.019 245.84 145.537 C 246.038 145.384 246.271 145.238 246.486 145.121 Z" style="fill: #3f3d56;"/>
  <path d="M 247.395 152.454 C 241.271 147.703 234.998 143.183 228.711 138.678 C 222.408 134.208 216.085 129.766 209.69 125.432 C 203.3 121.093 196.889 116.788 190.425 112.561 L 180.718 106.243 C 177.528 104.065 174.194 102.11 169.47 102.321 C 166.521 102.452 164.027 100.169 163.896 97.221 C 163.766 94.275 166.05 91.778 168.996 91.649 C 171.317 91.546 173.361 92.951 174.187 94.988 C 175.955 99.375 179.114 101.598 182.419 103.599 L 192.193 109.814 C 198.717 113.944 205.294 117.994 211.889 122.012 C 218.485 126.033 225.15 129.946 231.832 133.83 C 238.536 137.683 245.249 141.519 252.112 145.121 C 254.252 146.246 255.075 148.89 253.953 151.032 C 252.828 153.172 250.181 153.995 248.044 152.873 C 247.819 152.753 247.589 152.605 247.395 152.454 Z" style="fill: #3f3d56;"/>
  <path d="M 317.002 292.86 L 181.843 292.86 C 171.413 292.86 162.96 284.404 162.96 273.977 L 162.96 163.52 C 162.96 153.09 171.413 144.638 181.843 144.638 L 317.002 144.638 C 327.432 144.638 335.887 153.09 335.887 163.52 L 335.887 273.977 C 335.887 284.404 327.432 292.86 317.002 292.86 Z" style="fill: #3f3d56;"/>
  <path d="M 193.466 228.159 C 195.13 207.694 197.262 190.214 199.82 190.202 C 204.604 190.181 207.749 251.294 213.196 251.234 C 217.581 251.187 219.787 211.528 224.985 211.521 C 229.379 211.516 231.76 239.823 237.442 239.864 C 242.137 239.898 244.445 220.613 250.401 220.551 C 255.257 220.503 257.136 233.276 263.112 233.426 C 268.207 233.556 269.985 224.344 275.985 224.229 C 280.992 224.136 281.731 230.511 287.69 230.918 C 292.783 231.265 294.899 226.792 301.736 226.905 C 304.376 226.95 306.525 227.656 307.922 228.243" stroke-width="3" stroke-miterlimit="10" stroke-linecap="round" style="paint-order: fill; stroke: rgb(243, 244, 246); fill: none;"/>
</svg>